<svg width="20" height="13" viewBox="0 0 20 13" fill="none" xmlns="http://www.w3.org/2000/svg">
<path d="M1.2448 8.29693C2.10189 4.18114 5.68482 1.25673 9.71516 1.25673C13.7442 1.25673 17.3272 4.18114 18.1855 8.29693C18.2195 8.46025 18.317 8.60337 18.4565 8.69482C18.596 8.78626 18.7662 8.81854 18.9295 8.78454C19.0928 8.75054 19.2359 8.65306 19.3274 8.51354C19.4188 8.37401 19.4511 8.20388 19.4171 8.04056C18.4406 3.35924 14.3563 0 9.71516 0C5.07405 0 0.989682 3.35924 0.0132028 8.04056C-0.0207943 8.20388 0.0114794 8.37401 0.102924 8.51354C0.194369 8.65306 0.337494 8.75054 0.500814 8.78454C0.664134 8.81854 0.83427 8.78626 0.973794 8.69482C1.11332 8.60337 1.2108 8.46025 1.2448 8.29693ZM9.70259 3.77019C10.8692 3.77019 11.9879 4.23361 12.8128 5.0585C13.6377 5.88338 14.1011 7.00217 14.1011 8.16874C14.1011 9.33531 13.6377 10.4541 12.8128 11.279C11.9879 12.1039 10.8692 12.5673 9.70259 12.5673C8.53602 12.5673 7.41723 12.1039 6.59234 11.279C5.76745 10.4541 5.30403 9.33531 5.30403 8.16874C5.30403 7.00217 5.76745 5.88338 6.59234 5.0585C7.41723 4.23361 8.53602 3.77019 9.70259 3.77019Z" fill="#6A707C"/>
</svg>
