<svg width="27" height="26" viewBox="0 0 27 26" fill="none" xmlns="http://www.w3.org/2000/svg">
<path d="M5.7831 15.5528L4.87479 18.8971L1.55492 18.9663C0.562766 17.1514 0 15.0748 0 12.8682C0 10.7343 0.526172 8.72206 1.45885 6.95023H1.45956L4.41518 7.48465L5.70992 10.3822C5.43893 11.1614 5.29123 11.9978 5.29123 12.8682C5.29133 13.8128 5.46482 14.7178 5.7831 15.5528Z" fill="#FBBB00"/>
<path d="M25.8666 10.4641C26.0164 11.2426 26.0945 12.0465 26.0945 12.8681C26.0945 13.7893 25.9963 14.688 25.8092 15.5548C25.1741 18.5046 23.5145 21.0804 21.2155 22.9031L21.2148 22.9024L17.492 22.7151L16.9651 19.4711C18.4906 18.5888 19.6828 17.2079 20.3108 15.5548H13.3341V10.4641H20.4126H25.8666Z" fill="#518EF8"/>
<path d="M21.2147 22.9025L21.2154 22.9032C18.9795 24.6757 16.1392 25.7363 13.0473 25.7363C8.07857 25.7363 3.75865 22.9972 1.55493 18.9664L5.78311 15.5528C6.88495 18.4531 9.72166 20.5177 13.0473 20.5177C14.4767 20.5177 15.8159 20.1365 16.965 19.4712L21.2147 22.9025Z" fill="#28B446"/>
<path d="M21.3754 2.96249L17.1486 6.37536C15.9593 5.64217 14.5535 5.21863 13.0473 5.21863C9.64641 5.21863 6.75665 7.37791 5.71001 10.3822L1.45961 6.9502H1.45889C3.63035 2.82109 8.00475 0 13.0473 0C16.2131 0 19.1157 1.11219 21.3754 2.96249Z" fill="#F14336"/>
</svg>
