<svg width="24" height="29" viewBox="0 0 24 29" fill="none" xmlns="http://www.w3.org/2000/svg">
<path d="M5.77937 27.78C5.21345 27.4086 4.71187 26.9498 4.29394 26.4211C3.83421 25.8754 3.40826 25.3028 3.0184 24.7066C2.10354 23.3847 1.38608 21.94 0.88803 20.4167C0.289731 18.6474 0 16.9514 0 15.2927C0 13.4401 0.406341 11.8229 1.20108 10.464C1.79021 9.40193 2.65639 8.51436 3.70999 7.89315C4.73105 7.26766 5.90427 6.92535 7.10603 6.90231C7.52673 6.90231 7.97971 6.96247 8.4605 7.07747C8.80585 7.1739 9.22654 7.32607 9.74052 7.51539C10.3944 7.76399 10.7541 7.91615 10.8761 7.95331C11.2591 8.09132 11.5812 8.15148 11.8341 8.15148C12.0261 8.15148 12.297 8.09132 12.6046 7.99931C12.7778 7.93916 13.1043 7.83299 13.5716 7.63571C14.0345 7.46939 14.3986 7.32695 14.6884 7.22079C15.1324 7.09163 15.5621 6.9722 15.9451 6.91204C16.3991 6.84143 16.86 6.82273 17.3184 6.8563C18.1128 6.90751 18.8952 7.07354 19.6407 7.34907C20.8597 7.83299 21.8455 8.58851 22.5793 9.66252C22.2692 9.85104 21.9781 10.0685 21.7101 10.3119C21.1267 10.822 20.6298 11.4208 20.2381 12.0857C19.7262 12.9943 19.4608 14.0179 19.4676 15.0573C19.4864 16.3339 19.8183 17.4584 20.4722 18.4306C20.953 19.1512 21.5778 19.7674 22.3084 20.2416C22.6824 20.4902 23.0045 20.6609 23.313 20.7759C23.1686 21.2183 23.0143 21.6465 22.8322 22.0711C22.4193 23.0234 21.9187 23.9363 21.3369 24.7986C20.8185 25.5408 20.4121 26.0938 20.1036 26.4618C19.6228 27.0236 19.1599 27.4526 18.6926 27.7517C18.1786 28.0878 17.5713 28.2674 16.9542 28.2674C16.5362 28.2833 16.1184 28.2334 15.7163 28.1197C15.371 28.0047 15.0292 27.8799 14.6929 27.7375C14.3432 27.5791 13.9826 27.4452 13.6138 27.3367C12.7021 27.1058 11.7463 27.1043 10.834 27.3323C10.4599 27.4385 10.1002 27.5623 9.74501 27.7145C9.24538 27.9215 8.91349 28.0604 8.72153 28.1197C8.33851 28.2303 7.94114 28.2993 7.53928 28.3223C6.91766 28.3223 6.3382 28.1471 5.76412 27.7924L5.77937 27.78ZM13.9779 6.00347C13.1653 6.40423 12.3894 6.57497 11.6188 6.51924C11.4977 5.75399 11.6188 4.97104 11.9409 4.11378C12.215 3.38751 12.6201 2.71614 13.1366 2.13209C13.6819 1.51725 14.3437 1.0133 15.0848 0.648473C15.8742 0.247711 16.6268 0.0309636 17.3462 -0.00088501C17.4395 0.800639 17.3462 1.58889 17.0475 2.44084C16.7711 3.19396 16.3667 3.8952 15.8518 4.51454C15.3262 5.13022 14.6812 5.63613 13.9546 6.00258L13.9779 6.00347Z" fill="black"/>
</svg>
