<svg width="28" height="25" viewBox="0 0 28 25" fill="none" xmlns="http://www.w3.org/2000/svg">
<path d="M0.84375 3.09375V21.0938C0.84375 21.6905 1.0808 22.2628 1.50276 22.6847C1.92472 23.1067 2.49701 23.3438 3.09375 23.3438H25.5938C25.8921 23.3438 26.1783 23.2252 26.3892 23.0142C26.6002 22.8033 26.7188 22.5171 26.7188 22.2188V6.46875C26.7188 6.17038 26.6002 5.88423 26.3892 5.67326C26.1783 5.46228 25.8921 5.34375 25.5938 5.34375H3.09375C2.49701 5.34375 1.92472 5.1067 1.50276 4.68474C1.0808 4.26278 0.84375 3.69049 0.84375 3.09375ZM0.84375 3.09375C0.84375 2.49701 1.0808 1.92472 1.50276 1.50276C1.92472 1.0808 2.49701 0.84375 3.09375 0.84375H22.2188" stroke="#AAAAAA" stroke-width="1.6875" stroke-linecap="round" stroke-linejoin="round"/>
</svg>
